REM DIRINDEX 1\2\5,1\2\6,1\2\7,1\2\8,1\3\9,1\3\10,1\3\11,1\4\12,1\4\13,1\4\14,1\4\15,1\4\16
REM DIRNAME cjc034,folder01,folder02,folder03,folder04,folder05,folder06,folder07,folder08,folder09,folder10,folder11,folder12,folder13,folder14,folder15
TITLE ""
FILE "1200_sec04_1273_1279.mp3" MP3
  TRACK 01 AUDIO
    TITLE "0:"
    INDEX 01 00:00:00
  TRACK 02 AUDIO
    TITLE "12:cjc034_08806"
    INDEX 01 00:00:17
  TRACK 03 AUDIO
    TITLE "0:"
    INDEX 01 00:01:26
  TRACK 04 AUDIO
    TITLE "13:cjc034_08807"
    INDEX 01 00:01:58
  TRACK 05 AUDIO
    TITLE "0:"
    INDEX 01 00:05:48
  TRACK 06 AUDIO
    TITLE "14:cjc034_08808"
    INDEX 01 00:06:06
  TRACK 07 AUDIO
    TITLE "0:"
    INDEX 01 00:07:15
  TRACK 08 AUDIO
    TITLE "15:cjc034_08809"
    INDEX 01 00:07:47
  TRACK 09 AUDIO
    TITLE "0:"
    INDEX 01 00:12:48
  TRACK 10 AUDIO
    TITLE "12:cjc034_08810"
    INDEX 01 00:14:07
  TRACK 11 AUDIO
    TITLE "0:"
    INDEX 01 00:15:21
  TRACK 12 AUDIO
    TITLE "13:cjc034_08811"
    INDEX 01 00:15:54
  TRACK 13 AUDIO
    TITLE "0:"
    INDEX 01 00:17:57
  TRACK 14 AUDIO
    TITLE "14:cjc034_08812"
    INDEX 01 00:18:11
  TRACK 15 AUDIO
    TITLE "0:"
    INDEX 01 00:19:24
  TRACK 16 AUDIO
    TITLE "15:cjc034_08813"
    INDEX 01 00:19:58
  TRACK 17 AUDIO
    TITLE "0:"
    INDEX 01 00:23:26
  TRACK 18 AUDIO
    TITLE "12:cjc034_08814"
    INDEX 01 00:24:63
  TRACK 19 AUDIO
    TITLE "0:"
    INDEX 01 00:25:66
  TRACK 20 AUDIO
    TITLE "13:cjc034_08815"
    INDEX 01 00:26:24
  TRACK 21 AUDIO
    TITLE "0:"
    INDEX 01 00:27:36
  TRACK 22 AUDIO
    TITLE "14:cjc034_08816"
    INDEX 01 00:27:69
  TRACK 23 AUDIO
    TITLE "0:"
    INDEX 01 00:28:72
  TRACK 24 AUDIO
    TITLE "15:cjc034_08817"
    INDEX 01 00:29:29
  TRACK 25 AUDIO
    TITLE "0:"
    INDEX 01 00:34:36
  TRACK 26 AUDIO
    TITLE "12:cjc034_08818"
    INDEX 01 00:35:68
  TRACK 27 AUDIO
    TITLE "0:"
    INDEX 01 00:36:72
  TRACK 28 AUDIO
    TITLE "13:cjc034_08819"
    INDEX 01 00:37:30
  TRACK 29 AUDIO
    TITLE "0:"
    INDEX 01 00:39:54
  TRACK 30 AUDIO
    TITLE "14:cjc034_08820"
    INDEX 01 00:40:13
  TRACK 31 AUDIO
    TITLE "0:"
    INDEX 01 00:41:12
  TRACK 32 AUDIO
    TITLE "15:cjc034_08821"
    INDEX 01 00:41:47
  TRACK 33 AUDIO
    TITLE "0:"
    INDEX 01 00:46:11
  TRACK 34 AUDIO
    TITLE "12:cjc034_08822"
    INDEX 01 00:47:44
  TRACK 35 AUDIO
    TITLE "0:"
    INDEX 01 00:48:69
  TRACK 36 AUDIO
    TITLE "13:cjc034_08823"
    INDEX 01 00:49:29
  TRACK 37 AUDIO
    TITLE "0:"
    INDEX 01 00:53:74
  TRACK 38 AUDIO
    TITLE "14:cjc034_08824"
    INDEX 01 00:54:32
  TRACK 39 AUDIO
    TITLE "0:"
    INDEX 01 00:55:57
  TRACK 40 AUDIO
    TITLE "15:cjc034_08825"
    INDEX 01 00:56:18
  TRACK 41 AUDIO
    TITLE "0:"
    INDEX 01 01:00:62
  TRACK 42 AUDIO
    TITLE "16:cjc034_08826"
    INDEX 01 01:02:20
  TRACK 43 AUDIO
    TITLE "0:"
    INDEX 01 01:06:69
  TRACK 44 AUDIO
    TITLE "12:cjc034_08827"
    INDEX 01 01:07:74
  TRACK 45 AUDIO
    TITLE "0:"
    INDEX 01 01:09:18
  TRACK 46 AUDIO
    TITLE "13:cjc034_08828"
    INDEX 01 01:09:48
  TRACK 47 AUDIO
    TITLE "0:"
    INDEX 01 01:11:60
  TRACK 48 AUDIO
    TITLE "14:cjc034_08829"
    INDEX 01 01:12:17
  TRACK 49 AUDIO
    TITLE "0:"
    INDEX 01 01:13:36
  TRACK 50 AUDIO
    TITLE "15:cjc034_08830"
    INDEX 01 01:13:67
  TRACK 51 AUDIO
    TITLE "0:"
    INDEX 01 01:19:66
  TRACK 52 AUDIO
    TITLE "12:cjc034_08831"
    INDEX 01 01:21:23
  TRACK 53 AUDIO
    TITLE "0:"
    INDEX 01 01:22:29
  TRACK 54 AUDIO
    TITLE "13:cjc034_08832"
    INDEX 01 01:22:64
  TRACK 55 AUDIO
    TITLE "0:"
    INDEX 01 01:25:09
  TRACK 56 AUDIO
    TITLE "14:cjc034_08833"
    INDEX 01 01:25:41
  TRACK 57 AUDIO
    TITLE "0:"
    INDEX 01 01:26:48
  TRACK 58 AUDIO
    TITLE "15:cjc034_08834"
    INDEX 01 01:27:08
  TRACK 59 AUDIO
    TITLE "0:"
    INDEX 01 01:32:21
